<svg id="icons" enable-background="new 0 0 64 64" height="512" viewBox="0 0 64 64" width="512" xmlns="http://www.w3.org/2000/svg"><path d="m6.997 64h10.001.001 10 .001 10 .001 10 .001 10.001c.553 0 1-.447 1-1v-10-.002-9.996-.004-9.996-.002-9.996-.004-9.999-12.001c0-.552-.447-1-1-1h-50.006c-.553 0-1 .448-1 1v12.001 9.999.003 9.997.002 9.996.004 9.996.002 10c0 .553.447 1 1 1zm11.002-29.998h8v7.996h-8zm10.001 0h8v7.996h-8zm10.001 0h8v7.996h-8zm8-2.002h-8v-7.996h8zm-10.001 0h-8v-7.996h8zm-10.001 0h-8v-7.996h8zm-8 19.998v-7.996h8v7.996zm10.001 0v-7.996h8v7.996zm10.001 0v-7.996h8v7.996zm10.001-10v-7.996h8.001v7.996zm0-9.998v-7.996h8.001v7.996zm-32.004-7.997v7.997h-8.001v-7.996h8.001zm0 9.999v7.996h-8.001v-7.996zm0 10v7.996h-8.001v-7.996zm2.001 9.998h8v8h-8zm10.001 0h8v8h-8zm10.001 0h8v8h-8zm10.001-2.002v-7.996h8.001v7.996zm8.001-29.998h-8.001v-7.999h8.001zm-10.002 0h-8v-7.999h8zm-10.001 0h-8v-7.999h8zm-10.001 0h-8v-7.999h8zm-10.001 0h-8.001v-7.999h8.001zm-8.001 32h8.001v8h-8.001zm40.005 8v-8h8.001v8zm-40.005-60h48.006v10.001h-9.001-.001-10-.001-10-.001-10-.001-9.001z"/><path d="m35.581 37.104c-.117-.362-.43-.626-.807-.681l-1.296-.189-.582-1.177c-.338-.682-1.455-.682-1.793 0l-.582 1.177-1.296.189c-.377.055-.689.318-.807.681s-.02.759.253 1.024l.938.914-.222 1.289c-.064.374.089.754.396.978.309.225.718.253 1.053.077l1.164-.609 1.162.608c.146.076.305.114.464.114.008.001.016.001.02 0 .553 0 1-.447 1-1 0-.128-.023-.25-.067-.362l-.188-1.096.938-.914c.272-.265.369-.661.252-1.023zm-3.266 1.595c-.103-.034-.209-.051-.315-.051s-.213.017-.315.051c.001-.216-.067-.426-.195-.6.206-.065.386-.196.511-.373.125.177.305.308.511.373-.129.174-.198.384-.197.6z"/><path d="m11.984 20.969c1.646 0 2.984-1.339 2.984-2.984s-1.338-2.985-2.984-2.985-2.984 1.339-2.984 2.985 1.339 2.984 2.984 2.984zm0-3.969c.543 0 .984.441.984.984s-.441.984-.984.984-.984-.44-.984-.983.441-.985.984-.985z"/><path d="m42 30.986c1.646 0 2.984-1.339 2.984-2.984s-1.338-2.985-2.984-2.985-2.984 1.339-2.984 2.984 1.338 2.985 2.984 2.985zm0-3.969c.543 0 .984.441.984.984s-.441.985-.984.985-.984-.441-.984-.984.441-.985.984-.985z"/><path d="m52.002 45.016c-1.646 0-2.984 1.339-2.984 2.984s1.339 2.984 2.984 2.984 2.984-1.339 2.984-2.984-1.339-2.984-2.984-2.984zm0 3.968c-.543 0-.984-.441-.984-.984s.441-.984.984-.984.984.441.984.984-.441.984-.984.984z"/><path d="m21.999 55.016c-1.646 0-2.984 1.339-2.984 2.984s1.339 2.984 2.984 2.984 2.984-1.339 2.984-2.984-1.338-2.984-2.984-2.984zm0 3.968c-.543 0-.984-.441-.984-.984s.441-.984.984-.984.984.441.984.984-.441.984-.984.984z"/><path d="m52 20.985c1.646 0 2.984-1.339 2.984-2.984s-1.338-2.985-2.984-2.985-2.984 1.339-2.984 2.984 1.338 2.985 2.984 2.985zm0-3.969c.543 0 .984.441.984.984s-.441.985-.984.985-.984-.442-.984-.985.441-.984.984-.984z"/><path d="m32.004 11c2.206 0 4-1.794 4-4s-1.794-4-4-4-4 1.794-4 4 1.794 4 4 4zm0-6c1.103 0 2 .897 2 2s-.897 2-2 2-2-.897-2-2 .897-2 2-2z"/><path d="m25 6c0-.552-.447-1-1-1h-12c-.553 0-1 .448-1 1s.447 1 1 1h12c.553 0 1-.447 1-1z"/><path d="m22 9c0-.552-.447-1-1-1h-6c-.553 0-1 .448-1 1s.447 1 1 1h6c.553 0 1-.447 1-1z"/><path d="m40 7h12c.553 0 1-.448 1-1s-.447-1-1-1h-12c-.553 0-1 .448-1 1s.447 1 1 1z"/><path d="m49 8h-6c-.553 0-1 .448-1 1s.447 1 1 1h6c.553 0 1-.448 1-1s-.447-1-1-1z"/></svg>