<svg id="Layer_3" enable-background="new 0 0 64 64" height="512" viewBox="0 0 64 64" width="512" xmlns="http://www.w3.org/2000/svg"><g><path d="m62 55h-16.371l-3.058-6.352c8.515-3.99 14.429-12.639 14.429-22.648 0-13.785-11.215-25-25-25s-25 11.215-25 25c0 10.009 5.914 18.658 14.43 22.648l-3.059 6.352h-16.371c-.553 0-1 .448-1 1v6c0 .552.447 1 1 1h60c.553 0 1-.448 1-1v-6c0-.552-.447-1-1-1zm-53-29c0-12.682 10.317-23 23-23s23 10.318 23 23c0 9.216-5.451 17.18-13.297 20.846l-.875-1.818c7.175-3.343 12.172-10.604 12.172-19.028 0-11.58-9.421-21-21-21s-21 9.42-21 21c0 8.424 4.997 15.685 12.173 19.028l-.875 1.818c-7.847-3.666-13.298-11.63-13.298-20.846zm23 5.306 2.295 4.766c-.791.731-1.295 1.768-1.295 2.928 0 2.206 1.794 4 4 4 .206 0 .404-.031.601-.061l.5 1.037c-1.918.654-3.965 1.024-6.101 1.024s-4.183-.37-6.101-1.023zm-2-5.306c0-1.103.897-2 2-2s2 .897 2 2-.897 2-2 2-2-.897-2-2zm5 13c0-.344.095-.663.249-.946l1.402 2.911c-.936-.167-1.651-.982-1.651-1.965zm1.964-1.996c.012-.001.024-.004.036-.004 1.103 0 2 .897 2 2 0 .483-.179.921-.465 1.267zm-4.964 9.996c2.446 0 4.786-.442 6.972-1.215l.882 1.833c-2.452.893-5.097 1.382-7.854 1.382s-5.402-.489-7.854-1.382l.882-1.833c2.186.773 4.526 1.215 6.972 1.215zm7.44-4.853c.942-.733 1.56-1.864 1.56-3.147 0-2.206-1.794-4-4-4-.326 0-.638.05-.941.124l-2.604-5.407c1.487-.585 2.545-2.026 2.545-3.717 0-2.206-1.794-4-4-4s-4 1.794-4 4c0 1.691 1.058 3.132 2.545 3.716l-6.506 13.512c-6.506-3.019-11.039-9.596-11.039-17.228 0-10.477 8.523-19 19-19s19 8.523 19 19c0 7.632-4.533 14.209-11.039 17.228zm-16.165 7.279c2.718 1.016 5.657 1.574 8.725 1.574s6.007-.558 8.725-1.574l2.683 5.574h-22.816zm37.725 11.574h-58v-4h58z"/><path d="m22 30c-2.206 0-4 1.794-4 4s1.794 4 4 4 4-1.794 4-4-1.794-4-4-4zm0 6c-1.103 0-2-.897-2-2s.897-2 2-2 2 .897 2 2-.897 2-2 2z"/><path d="m23 25c0-2.206-1.794-4-4-4s-4 1.794-4 4 1.794 4 4 4 4-1.794 4-4zm-6 0c0-1.103.897-2 2-2s2 .897 2 2-.897 2-2 2-2-.897-2-2z"/><path d="m44 36c2.206 0 4-1.794 4-4s-1.794-4-4-4-4 1.794-4 4 1.794 4 4 4zm0-6c1.103 0 2 .897 2 2s-.897 2-2 2-2-.897-2-2 .897-2 2-2z"/><path d="m45 27c2.206 0 4-1.794 4-4s-1.794-4-4-4-4 1.794-4 4 1.794 4 4 4zm0-6c1.103 0 2 .897 2 2s-.897 2-2 2-2-.897-2-2 .897-2 2-2z"/><path d="m61 26h2c0-9.843-4.52-18.883-12.399-24.802l-1.201 1.6c7.371 5.537 11.6 13.994 11.6 23.202z"/><path d="m14.601 2.797-1.201-1.599c-7.88 5.92-12.4 14.96-12.4 24.802h2c0-9.208 4.229-17.665 11.601-23.203z"/></g></svg>