<svg id="Layer_3" enable-background="new 0 0 64 64" height="512" viewBox="0 0 64 64" width="512" xmlns="http://www.w3.org/2000/svg"><g><g><path d="m3 61h58v-4h-58z"/></g><g><path d="m45.197 57.867 1.803-.867-5.297-10.154c-.603.282-1.219.542-1.849.772z"/><path d="m17 57 1.803.867 5.343-10.249c-.63-.23-1.246-.49-1.849-.772z"/><circle cx="22" cy="34" r="2"/><circle cx="32" cy="26" r="2"/><circle cx="19" cy="25" r="2"/><circle cx="45" cy="23" r="2"/><path d="m38.535 40.267c.286-.346.465-.784.465-1.267 0-1.103-.897-2-2-2"/><path d="m35 39c0 .983.715 1.798 1.651 1.965l-1.402-2.911c-.154.283-.249.602-.249.946z"/><path d="m32 47c-2.446 0-4.786-.442-6.972-1.215l-.882 1.833c2.452.893 5.097 1.382 7.854 1.382s5.402-.489 7.854-1.382l-.882-1.833c-2.186.773-4.526 1.215-6.972 1.215z"/><path d="m55 26c0-12.682-10.317-23-23-23s-23 10.318-23 23c0 9.216 5.451 17.18 13.297 20.846l.875-1.818c-7.175-3.343-12.172-10.604-12.172-19.028 0-11.58 9.421-21 21-21s21 9.42 21 21c0 8.424-4.997 15.685-12.173 19.028l.875 1.818c7.847-3.666 13.298-11.63 13.298-20.846z"/><path d="m38.101 43.977-.5-1.037c-.197.029-.395.06-.601.06-2.206 0-4-1.794-4-4 0-1.16.504-2.197 1.295-2.928l-2.295-4.766-6.101 12.671c1.918.653 3.965 1.023 6.101 1.023s4.183-.37 6.101-1.023z"/><path d="m28 26c0-2.206 1.794-4 4-4s4 1.794 4 4c0 1.691-1.058 3.132-2.545 3.716l2.604 5.407c.303-.073.615-.123.941-.123 2.206 0 4 1.794 4 4 0 1.283-.618 2.414-1.56 3.147l.521 1.082c6.506-3.02 11.039-9.597 11.039-17.229 0-10.477-8.523-19-19-19s-19 8.523-19 19c0 7.632 4.533 14.209 11.039 17.228l6.506-13.512c-1.487-.584-2.545-2.025-2.545-3.716zm17-7c2.206 0 4 1.794 4 4s-1.794 4-4 4-4-1.794-4-4 1.794-4 4-4zm-1 9c2.206 0 4 1.794 4 4s-1.794 4-4 4-4-1.794-4-4 1.794-4 4-4zm-29-3c0-2.206 1.794-4 4-4s4 1.794 4 4-1.794 4-4 4-4-1.794-4-4zm7 13c-2.206 0-4-1.794-4-4s1.794-4 4-4 4 1.794 4 4-1.794 4-4 4z"/><circle cx="44" cy="32" r="2"/></g><g><path d="m63 26h-2c0-9.208-4.229-17.665-11.601-23.202l1.201-1.6c7.88 5.919 12.4 14.959 12.4 24.802z"/></g><g><path d="m3 26h-2c0-9.842 4.52-18.882 12.399-24.801l1.201 1.599c-7.371 5.537-11.6 13.994-11.6 23.202z"/></g></g></svg>